<?xml version="1.0" encoding="UTF-8"?>
<svg id="Layer_1" xmlns="http://www.w3.org/2000/svg" version="1.1" viewBox="0 0 233.7 164.8">
  <!-- Generator: Adobe Illustrator 29.6.0, SVG Export Plug-In . SVG Version: 2.1.1 Build 207)  -->
  <defs>
    <style>
      .st0 {
        fill: #e84335;
      }

      .st1 {
        fill: #4382f2;
      }

      .st2 {
        stroke-width: .1px;
      }

      .st2, .st3 {
        fill: none;
        stroke: #5e6368;
        stroke-miterlimit: 10;
      }

      .st4 {
        fill: #5f6469;
      }

      .st5 {
        fill: #35a653;
      }

      .st6 {
        fill: #f9ba05;
      }

      .st3 {
        stroke-width: .5px;
      }
    </style>
  </defs>
  <path class="st4" d="M122.9,131.8c3.1-.1,6.2,0,9.3,0,2.4,0,4.6,1.5,5.9,3.5,1.1,1.7,1.2,3.8.9,5.7-.2,2-1.7,3.5-3.3,4.6-2.8,1.7-6.2.9-9.3,1.1-.3,3.3,0,6.5-.1,9.8-1.1.1-2.3.1-3.4,0,0-8.2,0-16.5,0-24.7M126.5,135.2c-.3,2.7-.2,5.4,0,8,2.1,0,4.3.2,6.5,0,2.9-1,3.6-5.2,1.3-7.1-2.3-1.5-5.2-.6-7.7-.8M174.6,138.4c0-1.5-.1-3.1.2-4.6,1.1,0,2.2,0,3.3,0,0,1.5,0,3,.1,4.5,1.2.6,2.7.1,4,.3,0,1.1,0,2.1,0,3.2-1.3,0-2.7,0-4,.3,0,3.2,0,6.4,0,9.6,0,.8.3,1.8,1.2,2,1,0,2,0,3-.1.1,1.1,0,2.2-.3,3.2-1.6,0-3.3.3-4.8-.1-1.2-.8-2.5-1.9-2.6-3.4-.4-3.7.1-7.4-.2-11.1-1-.2-2-.3-3.1-.5,0-1,0-2,0-3,1-.1,2.1,0,3.1-.4M142,141.9c2.8-5.1,11.5-5.2,14.3,0,.8,1.7.6,3.6.6,5.5,0,3,0,6.1,0,9.2-.9,0-1.8,0-2.7,0-.3-.4-.6-.8-.9-1.2-2,1.3-4.4,2.7-6.9,1.8-3.6-.5-6.3-4.6-4.8-8.1,1-2.7,3.9-3.8,6.5-4,1.9-.1,3.7.5,5.5.6-.2-2.2-1.8-4.2-4.1-4.1-2.1-.3-3.8.9-5.1,2.3-.9-.5-1.7-1.1-2.4-1.8M144.8,151.4c.1,1.8,2.1,2.8,3.8,2.7,2.6-.1,4.7-2.4,4.9-4.9-1.4-1.3-3.5-1.3-5.3-1.2-1.7,0-3.6,1.5-3.4,3.4M188.7,140.1c1.6-1,3.3-2.2,5.3-2,3.4-.3,6.5,2.7,6.6,6.1,0,4.1,0,8.2,0,12.2-1.1.1-2.3.1-3.4,0-.1-4,.2-8.1-.2-12.2-.2-2.6-3.4-3.4-5.5-2.6-1.8.8-2.9,2.8-2.9,4.7,0,3.3,0,6.7,0,10-1.2.1-2.4.1-3.5,0,0-5.9,0-11.8,0-17.7,1.1,0,2.2-.1,3.2,0,.1.3.3,1,.4,1.3M206.8,139.8c3.4-2.6,8.7-2.1,11.5,1.1,1.7,2.1,2.5,4.9,2.1,7.6-4.5.1-9,0-13.6,0-.4,3.3,3,6,6.1,5.4,1.9,0,3-1.7,4.2-2.8,1.1-.1,2,.7,2.9,1.1-1.8,4.5-7.8,6.3-12,4.1-6.2-2.8-6.7-12.6-1.4-16.6M206.8,145.4c3.3.1,6.5.1,9.8,0-.2-2.4-2.6-4.3-4.9-4-2.4-.1-4.2,1.9-4.9,4M229.7,138.3c1.3-.4,2.6-.2,3.9,0,.1,1.2.1,2.4.1,3.6-1.3,0-2.6-.4-3.9,0-1.9.6-3.1,2.6-3,4.6,0,3.3,0,6.6,0,10-1.2.2-2.4.2-3.5,0,0-5.9,0-11.8,0-17.7.9,0,1.8-.1,2.8,0,.3.4.6.9.9,1.3.9-.5,1.8-1.2,2.8-1.6M163.3,140.5c1.3-.7,2.5-1.8,4-1.8.8,0,1.6,0,2.4,0,0,1.1,0,2.2,0,3.3-1.6.2-3.4-.1-4.7,1-.8.8-1.6,1.9-1.7,3.1-.1,3.6,0,7.2,0,10.8-1.1,0-2.3.1-3.4,0,0-5.9,0-11.9,0-17.8,1,0,2,0,2.9,0,0,.3.3,1,.4,1.3"/>
  <path class="st2" d="M122.9,131.8c3.1-.1,6.2,0,9.3,0,2.4,0,4.6,1.5,5.9,3.5,1.1,1.7,1.2,3.8.9,5.7-.2,2-1.7,3.5-3.3,4.6-2.8,1.7-6.2.9-9.3,1.1-.3,3.3,0,6.5-.1,9.8-1.1.1-2.3.1-3.4,0,0-8.2,0-16.5,0-24.7M126.5,135.2c-.3,2.7-.2,5.4,0,8,2.1,0,4.3.2,6.5,0,2.9-1,3.6-5.2,1.3-7.1-2.3-1.5-5.2-.6-7.7-.8M174.6,138.4c0-1.5-.1-3.1.2-4.6,1.1,0,2.2,0,3.3,0,0,1.5,0,3,.1,4.5,1.2.6,2.7.1,4,.3,0,1.1,0,2.1,0,3.2-1.3,0-2.7,0-4,.3,0,3.2,0,6.4,0,9.6,0,.8.3,1.8,1.2,2,1,0,2,0,3-.1.1,1.1,0,2.2-.3,3.2-1.6,0-3.3.3-4.8-.1-1.2-.8-2.5-1.9-2.6-3.4-.4-3.7.1-7.4-.2-11.1-1-.2-2-.3-3.1-.5,0-1,0-2,0-3,1-.1,2.1,0,3.1-.4M142,141.9c2.8-5.1,11.5-5.2,14.3,0,.8,1.7.6,3.6.6,5.5,0,3,0,6.1,0,9.2-.9,0-1.8,0-2.7,0-.3-.4-.6-.8-.9-1.2-2,1.3-4.4,2.7-6.9,1.8-3.6-.5-6.3-4.6-4.8-8.1,1-2.7,3.9-3.8,6.5-4,1.9-.1,3.7.5,5.5.6-.2-2.2-1.8-4.2-4.1-4.1-2.1-.3-3.8.9-5.1,2.3-.9-.5-1.7-1.1-2.4-1.8M144.8,151.4c.1,1.8,2.1,2.8,3.8,2.7,2.6-.1,4.7-2.4,4.9-4.9-1.4-1.3-3.5-1.3-5.3-1.2-1.7,0-3.6,1.5-3.4,3.4M188.7,140.1c1.6-1,3.3-2.2,5.3-2,3.4-.3,6.5,2.7,6.6,6.1,0,4.1,0,8.2,0,12.2-1.1.1-2.3.1-3.4,0-.1-4,.2-8.1-.2-12.2-.2-2.6-3.4-3.4-5.5-2.6-1.8.8-2.9,2.8-2.9,4.7,0,3.3,0,6.7,0,10-1.2.1-2.4.1-3.5,0,0-5.9,0-11.8,0-17.7,1.1,0,2.2-.1,3.2,0,.1.3.3,1,.4,1.3M206.8,139.8c3.4-2.6,8.7-2.1,11.5,1.1,1.7,2.1,2.5,4.9,2.1,7.6-4.5.1-9,0-13.6,0-.4,3.3,3,6,6.1,5.4,1.9,0,3-1.7,4.2-2.8,1.1-.1,2,.7,2.9,1.1-1.8,4.5-7.8,6.3-12,4.1-6.2-2.8-6.7-12.6-1.4-16.6M206.8,145.4c3.3.1,6.5.1,9.8,0-.2-2.4-2.6-4.3-4.9-4-2.4-.1-4.2,1.9-4.9,4M229.7,138.3c1.3-.4,2.6-.2,3.9,0,.1,1.2.1,2.4.1,3.6-1.3,0-2.6-.4-3.9,0-1.9.6-3.1,2.6-3,4.6,0,3.3,0,6.6,0,10-1.2.2-2.4.2-3.5,0,0-5.9,0-11.8,0-17.7.9,0,1.8-.1,2.8,0,.3.4.6.9.9,1.3.9-.5,1.8-1.2,2.8-1.6M163.3,140.5c1.3-.7,2.5-1.8,4-1.8.8,0,1.6,0,2.4,0,0,1.1,0,2.2,0,3.3-1.6.2-3.4-.1-4.7,1-.8.8-1.6,1.9-1.7,3.1-.1,3.6,0,7.2,0,10.8-1.1,0-2.3.1-3.4,0,0-5.9,0-11.9,0-17.8,1,0,2,0,2.9,0,0,.3.3,1,.4,1.3Z"/>
  <path class="st0" d="M81.2,15.1C91.2,4.9,105.6-.5,119.7,0c8.3.6,16.6,2.7,23.7,7.1,2.9,1.8,5.9,3.8,8.2,6.4-2.2,2.6-4.9,4.9-7.2,7.4-2.5,2.4-4.9,5-7.5,7.4-4.1-3.7-9.1-6.5-14.6-7.2-5.7-.7-11.7-.4-17,2.2-5.8,2.6-10.7,7.2-13.9,12.6-1.1,1.9-1.8,3.9-2.8,5.9-5.8-4.3-11.4-8.8-17.1-13.2,2.3-5.1,5.7-9.6,9.6-13.5"/>
  <path class="st6" d="M71.6,28.6c5.7,4.3,11.3,8.9,17.1,13.2-.9,4.2-2.2,8.4-1.4,12.7.2,2.4.9,4.6,1.4,7-4.5,3.6-9.1,7-13.6,10.7-1.1.9-2.4,1.7-3.6,2.4-3.1-6.2-5-13.1-5.2-20-.2-4.6,0-9.2.9-13.6,1-4.2,2.2-8.4,4.4-12.2"/>
  <path class="st1" d="M117.9,42.2c14.1,0,28.2,0,42.3,0,1.8,0,3.6-.1,5.4.2,3.1,15.3-.3,32.3-10.5,44.4-1.1,1.3-2.2,2.8-3.7,3.6-5.6-4.1-11-8.6-16.6-12.8,4.9-3.7,8.6-9.2,9.3-15.3-8.8-.2-17.6,0-26.4-.1-.2-5.2,0-10.4-.1-15.6,0-1.4-.2-2.9.3-4.3"/>
  <path class="st5" d="M75.1,72.1c4.5-3.6,9.1-7.1,13.6-10.7,1.1,2.1,1.8,4.3,3.1,6.3,4,6.7,10.7,11.7,18.2,13.7,5.3,1.2,10.8,1.1,16.1,0,3.1-.8,5.9-2.3,8.7-3.8,5.6,4.2,11,8.7,16.6,12.8-1.4,1.7-3.2,3-5,4.2-8.4,5.9-18.8,8.3-28.9,8.6-10.2-.2-20.5-3.1-28.9-9-7.3-4.9-13.2-11.8-17.1-19.7,1.3-.7,2.5-1.5,3.6-2.4"/>
  <path class="st4" d="M5.5,133.6c3.6-2.9,8.8-3.1,13-1.5,1.5.7,3.2,1.6,3.9,3.2-.7.8-1.5,1.5-2.3,2.2-1.2-1-2.4-2.1-4-2.6-3.7-1.1-8.2,0-10.5,3.3-1.9,2.3-2,5.5-1.6,8.3.8,4.4,5.4,7.6,9.8,7.3,4,0,8-3.3,8-7.4-2.9-.2-5.8,0-8.7-.1-.4-.9-.4-1.9-.2-2.9,4.1-.4,8.2-.1,12.3-.1.4,3.6-.1,7.7-2.9,10.4-4.5,4.8-12.6,4.8-17.5.7-3.1-2.6-4.9-6.8-4.6-10.8.2-3.8,2.2-7.4,5.3-9.7M89.3,131.9c1.2-.2,2.3-.2,3.5-.1.2,8.2,0,16.4,0,24.6-1.1.4-2.4.2-3.5.2,0-8.2,0-16.4,0-24.6M34.5,138.3c2.6-.6,5.4-.3,7.5,1.3,4.2,2.7,5.3,9,2.7,13.1-1.6,3-5,4.5-8.2,4.5-2.2-.3-4.4-1-6-2.6-2.6-2.5-3.5-6.6-2.4-10,.7-3.1,3.4-5.5,6.4-6.4M35,141.7c-2.1.7-3.5,2.8-3.6,5-.2,2.2.2,4.6,2.1,6,2.8,2.5,7.9.9,8.8-2.7.5-2.3.5-5.2-1.4-6.9-1.4-1.7-3.9-2-5.9-1.4M54.6,138.4c2.3-.5,5-.5,7,.8,4.9,2.5,6.3,9.7,3.1,14.1-1.6,2.6-4.7,4-7.7,4-2.8-.2-5.8-1.4-7.4-3.9-1.6-2.1-1.8-4.8-1.6-7.4.3-3.6,3.2-6.6,6.5-7.6M55.4,141.7c-4.7,1.4-5.3,8.7-1.4,11.3,1.9,1.3,4.8,1.3,6.6-.3,2.9-2.2,3-6.9.6-9.6-1.4-1.6-3.8-2-5.8-1.5M68.5,144.7c.9-3.7,4.5-6.9,8.5-6.5,1.9-.1,3.5,1.1,5.1,2.1.2-.5.3-1,.5-1.5,1,0,2.1,0,3.1,0,.1,5.7,0,11.4,0,17.1,0,2.8-1.1,5.8-3.6,7.4-2.2,1.4-4.9,1.4-7.3,1.1-2.7-.4-5.1-2.4-5.9-5,.8-.6,1.8-1.4,2.9-1.2,1,1,1.8,2.2,3,2.8,2.3,1.1,5.2.2,6.6-1.9.8-1.2.8-2.7.8-4.1-1.9,1.2-3.9,2.5-6.2,2.2-2.3-.4-4.8-1.3-6.1-3.4-1.9-2.6-2.3-6.1-1.5-9.2M75,141.8c-3.9,1.8-4.4,7.6-1.7,10.6,1.5,1.7,4.2,2,6.2.9,3.8-2.4,3.9-8.8.2-11.2-1.4-.8-3.2-.9-4.7-.3M98.3,140.6c1.6-1.7,4-2.7,6.3-2.5,3-.1,5.7,1.7,7.2,4.2,1,1.8,1.1,3.9,1,5.9-4.5.5-9,0-13.5.2-.4,3.4,3.2,6.2,6.4,5.4,1.8-.2,2.9-1.8,4-3.1.9.4,1.9.8,2.8,1.3-.6,2.6-3.2,4.3-5.7,5-2.6.8-5.5,0-7.7-1.5-2.4-1.8-3.3-4.8-3.6-7.7.2-2.6.8-5.3,2.8-7.2M102.2,141.9c-1.5.5-2.2,2.2-2.7,3.6,3.2,0,6.5,0,9.7,0-.4-1.1-.6-2.2-1.5-3-1.5-1.3-3.7-1.3-5.5-.6"/>
  <path class="st3" d="M5.5,133.6c3.6-2.9,8.8-3.1,13-1.5,1.5.7,3.2,1.6,3.9,3.2-.7.8-1.5,1.5-2.3,2.2-1.2-1-2.4-2.1-4-2.6-3.7-1.1-8.2,0-10.5,3.3-1.9,2.3-2,5.5-1.6,8.3.8,4.4,5.4,7.6,9.8,7.3,4,0,8-3.3,8-7.4-2.9-.2-5.8,0-8.7-.1-.4-.9-.4-1.9-.2-2.9,4.1-.4,8.2-.1,12.3-.1.4,3.6-.1,7.7-2.9,10.4-4.5,4.8-12.6,4.8-17.5.7-3.1-2.6-4.9-6.8-4.6-10.8.2-3.8,2.2-7.4,5.3-9.7M89.3,131.9c1.2-.2,2.3-.2,3.5-.1.2,8.2,0,16.4,0,24.6-1.1.4-2.4.2-3.5.2,0-8.2,0-16.4,0-24.6M34.5,138.3c2.6-.6,5.4-.3,7.5,1.3,4.2,2.7,5.3,9,2.7,13.1-1.6,3-5,4.5-8.2,4.5-2.2-.3-4.4-1-6-2.6-2.6-2.5-3.5-6.6-2.4-10,.7-3.1,3.4-5.5,6.4-6.4M35,141.7c-2.1.7-3.5,2.8-3.6,5-.2,2.2.2,4.6,2.1,6,2.8,2.5,7.9.9,8.8-2.7.5-2.3.5-5.2-1.4-6.9-1.4-1.7-3.9-2-5.9-1.4M54.6,138.4c2.3-.5,5-.5,7,.8,4.9,2.5,6.3,9.7,3.1,14.1-1.6,2.6-4.7,4-7.7,4-2.8-.2-5.8-1.4-7.4-3.9-1.6-2.1-1.8-4.8-1.6-7.4.3-3.6,3.2-6.6,6.5-7.6M55.4,141.7c-4.7,1.4-5.3,8.7-1.4,11.3,1.9,1.3,4.8,1.3,6.6-.3,2.9-2.2,3-6.9.6-9.6-1.4-1.6-3.8-2-5.8-1.5M68.5,144.7c.9-3.7,4.5-6.9,8.5-6.5,1.9-.1,3.5,1.1,5.1,2.1.2-.5.3-1,.5-1.5,1,0,2.1,0,3.1,0,.1,5.7,0,11.4,0,17.1,0,2.8-1.1,5.8-3.6,7.4-2.2,1.4-4.9,1.4-7.3,1.1-2.7-.4-5.1-2.4-5.9-5,.8-.6,1.8-1.4,2.9-1.2,1,1,1.8,2.2,3,2.8,2.3,1.1,5.2.2,6.6-1.9.8-1.2.8-2.7.8-4.1-1.9,1.2-3.9,2.5-6.2,2.2-2.3-.4-4.8-1.3-6.1-3.4-1.9-2.6-2.3-6.1-1.5-9.2M75,141.8c-3.9,1.8-4.4,7.6-1.7,10.6,1.5,1.7,4.2,2,6.2.9,3.8-2.4,3.9-8.8.2-11.2-1.4-.8-3.2-.9-4.7-.3M98.3,140.6c1.6-1.7,4-2.7,6.3-2.5,3-.1,5.7,1.7,7.2,4.2,1,1.8,1.1,3.9,1,5.9-4.5.5-9,0-13.5.2-.4,3.4,3.2,6.2,6.4,5.4,1.8-.2,2.9-1.8,4-3.1.9.4,1.9.8,2.8,1.3-.6,2.6-3.2,4.3-5.7,5-2.6.8-5.5,0-7.7-1.5-2.4-1.8-3.3-4.8-3.6-7.7.2-2.6.8-5.3,2.8-7.2M102.2,141.9c-1.5.5-2.2,2.2-2.7,3.6,3.2,0,6.5,0,9.7,0-.4-1.1-.6-2.2-1.5-3-1.5-1.3-3.7-1.3-5.5-.6"/>
</svg>